<svg width="572" height="466" viewBox="0 0 572 466" fill="none" xmlns="http://www.w3.org/2000/svg">
<path d="M209.606 117.39L183.716 130.43L194.276 102.06L209.606 117.39Z" fill="#DB5858"/>
<path d="M399.666 102.06L410.226 130.43L384.336 117.39L399.666 102.06Z" fill="#DB5858"/>
<path d="M316.156 53.1999C316.156 57.0299 315.076 60.5999 313.196 63.6499C307.746 62.3499 302.066 61.6499 296.236 61.6499C290.406 61.6499 284.736 62.3499 279.276 63.6499C277.396 60.6099 276.316 57.0299 276.316 53.1999C276.316 42.2099 285.236 33.2899 296.226 33.2899C307.216 33.2899 316.136 42.2099 316.136 53.1999H316.156Z" fill="#DB5858"/>
<path d="M308.716 15.5599H283.766C283.026 15.5599 282.446 14.9199 282.526 14.1899C283.216 7.2199 289.096 1.77991 296.246 1.77991C303.396 1.77991 309.276 7.2199 309.966 14.1899C310.036 14.9199 309.456 15.5599 308.726 15.5599H308.716Z" fill="#F9CF8C"/>
<path d="M353.046 203.25H238.986C238.056 203.25 237.456 202.26 237.886 201.43L249.896 178.34H342.136L354.146 201.43C354.576 202.26 353.976 203.25 353.046 203.25Z" fill="#F9CF8C"/>
<path d="M360.866 98.4199C342.056 93.9899 319.666 91.6499 296.026 91.6499C272.386 91.6499 249.956 93.9999 231.176 98.4299C232.116 96.8999 233.116 95.3999 234.166 93.9299C252.396 89.9899 273.656 87.9199 296.026 87.9199C318.396 87.9199 339.626 89.9799 357.876 93.9199C358.936 95.3899 359.936 96.8899 360.866 98.4199Z" fill="#DB5858"/>
<path d="M369.306 151.69C368.906 152.89 368.466 154.06 367.956 155.18C348.196 149.62 322.756 146.56 295.926 146.56C269.096 146.56 243.866 149.59 224.116 155.12C223.606 154 223.136 152.83 222.726 151.63C242.866 145.95 268.736 142.84 295.926 142.84C323.116 142.84 349.166 145.97 369.316 151.7L369.306 151.69Z" fill="#DB5858"/>
<path d="M371.716 132.04C351.926 125.79 324.426 122.2 296.016 122.2C267.606 122.2 240.116 125.79 220.316 132.04C220.506 128.4 220.996 124.79 221.786 121.23C242.206 115.43 268.266 112.26 296.016 112.26C323.766 112.26 349.846 115.43 370.246 121.23C371.026 124.78 371.526 128.4 371.716 132.04Z" fill="#DB5858"/>
<path d="M434.806 295.67C434.636 297.05 434.086 298.02 433.166 298.55C432.606 298.86 431.996 298.96 431.426 298.96C430.286 298.96 429.306 298.54 429.236 298.51C428.926 298.37 428.776 298 428.916 297.69C429.056 297.38 429.416 297.23 429.736 297.37C429.746 297.38 431.436 298.1 432.546 297.47C433.116 297.15 433.456 296.49 433.576 295.52C433.616 295.18 433.936 294.95 434.256 294.97C434.606 295.02 434.836 295.33 434.806 295.67Z" fill="white"/>
<path d="M465.486 104H433.096C433.096 95.0599 440.346 87.8099 449.286 87.8099C458.226 87.8099 465.476 95.0599 465.476 104H465.486Z" fill="#DB5858"/>
<path d="M449.286 86.89C452.097 86.89 454.376 84.6111 454.376 81.8C454.376 78.9888 452.097 76.71 449.286 76.71C446.475 76.71 444.196 78.9888 444.196 81.8C444.196 84.6111 446.475 86.89 449.286 86.89Z" fill="#DB5858"/>
<path d="M327.516 52.22C331.016 34.14 332.356 8.04997 357.996 11.93L380.926 16.47C384.246 17.13 386.406 20.35 385.746 23.68C382.246 41.76 380.906 67.85 355.266 63.97L332.336 59.43C329.016 58.77 326.856 55.55 327.516 52.22Z" fill="#89C476"/>
<path d="M354.127 27.68C346.687 27.31 344.997 33.68 343.347 43.23C343.167 44.27 342.997 45.29 342.807 46.27C342.747 46.56 342.807 46.85 342.967 47.09C343.127 47.33 343.367 47.49 343.647 47.54L355.027 49.79C363.757 51.16 365.537 44.55 367.287 34.4C367.467 33.36 367.637 32.34 367.827 31.36C367.887 31.07 367.827 30.79 367.667 30.55C367.507 30.31 367.267 30.15 366.987 30.1L355.607 27.85C355.087 27.77 354.597 27.72 354.127 27.69V27.68Z" fill="#F9CF8C"/>
<path d="M571.046 354.81C560.396 358.83 547.856 356.65 536.826 352.93C524.216 348.67 511.916 342.56 498.636 342.01C470.256 340.83 444.596 365.19 416.496 360.97C399.826 358.45 385.636 346.03 368.806 344.73C347.406 343.07 328.286 359.67 306.846 360.3C283.276 361.01 261.836 342.33 238.426 345.05C220.416 347.14 206.026 361.41 188.446 365.78C152.776 374.61 119.476 341.26 82.7764 340.87C67.8764 340.71 53.5664 346.03 39.0664 349.38C26.2664 352.34 12.1864 353.56 0.296387 348.53V401.98C17.8964 409.06 37.7564 403.24 55.4564 398.57C66.3764 395.73 77.4064 393.45 88.7264 394.59C97.9864 395.54 106.936 398.45 115.566 401.8C132.746 408.46 149.466 417.64 167.906 420.09C170.546 420.44 173.186 420.6 175.826 420.6C182.056 420.6 188.206 419.61 194.116 417.49C203.336 414.14 211.576 408.82 220.326 404.44C229.506 399.87 239.086 397.15 249.456 398.57C259.076 399.91 268.176 403.81 277.246 407.16C286.316 410.55 295.696 413.66 305.466 413.7C315.126 413.7 324.346 410.47 333.216 407C342.396 403.37 351.736 399.16 361.676 398.17C371.926 397.18 381.306 400.69 390.446 404.91C399.276 408.93 408.066 413.34 417.796 414.49C427.056 415.59 436.316 413.66 445.036 410.79C463.006 404.84 480.666 394.04 500.176 395.46C521.976 397.08 540.736 412.6 563.156 410.04C565.876 409.74 568.506 409.17 571.056 408.29V354.82L571.046 354.81Z" fill="#006DBA"/>
<path d="M197.977 81.43C188.657 70.51 172.127 67.05 157.727 74.01C146.557 79.39 139.506 89.67 138.156 100.59C136.966 92.61 138.606 82.73 143.316 73.12C148.826 61.84 157.266 53.64 165.566 50.45C166.706 50.01 166.586 48.33 165.386 48.09C151.306 45.26 136.176 52.75 129.156 67.12C125.936 73.68 124.896 80.71 125.746 87.3C121.596 83.92 116.566 81.4 110.886 80.15C94.3965 76.49 78.2365 84.67 72.3365 98.8C71.8465 99.98 73.2165 101.07 74.2265 100.28C81.6865 94.48 94.6565 92.27 108.376 95.32C114.506 96.67 120.067 98.92 124.727 101.75C117.107 99.81 108.597 100.48 100.727 104.29C85.5065 111.63 77.8865 128.05 82.0065 142.81C82.3465 144.04 84.1065 144.05 84.4065 142.81C86.6665 133.63 95.4865 123.87 108.156 117.77C116.126 113.92 124.286 112.18 131.386 112.39C129.996 114.19 129.146 116.65 129.146 119.37C129.146 124.89 132.676 129.36 137.016 129.36C141.066 129.36 144.396 125.48 144.836 120.5C149.106 123.43 154.416 123.25 156.956 119.96C159.616 116.52 158.236 111 153.876 107.62C150.856 105.28 147.196 104.59 144.346 105.52C148.386 98.65 155.696 92.04 165.156 87.49C176.456 82.03 188.166 80.79 196.656 83.4C197.826 83.76 198.767 82.37 197.977 81.43Z" fill="#89C476"/>
<path d="M499.246 329.78C497.946 329.12 496.046 328.65 494.286 329.73C492.916 330.56 493.356 333.12 493.876 334.75C494.066 335.31 493.456 335.78 492.966 335.48C489.236 333.17 489.716 327.8 489.986 326C490.046 325.6 489.916 325.2 489.636 324.92C487.746 323.01 485.846 321.29 483.946 319.74C484.016 319.44 484.086 319.14 484.116 318.83C485.036 311.13 472.576 303.3 456.296 301.35C453.536 301.03 450.856 300.88 448.286 300.93C449.626 304.28 452.906 308.53 454.906 310.95C455.606 311.77 454.966 313.01 453.896 312.99C444.106 312.69 439.086 303.72 438.236 302.05C430.956 303.7 425.936 307.08 425.196 311.48C421.956 312.46 419.566 313.21 418.306 313.17C417.876 313.16 417.476 312.91 417.216 312.55C416.926 312.13 416.866 311.59 417.076 311.13C417.076 311.13 420.486 305.99 420.256 303.45C420.036 301 421.686 283.23 456.386 283.25C456.386 283.25 464.636 274 474.786 274.28C476.756 274.34 473.236 277.37 472.166 279.05C469.276 283.56 470.096 287.09 470.096 287.09C470.096 287.09 488.736 296.77 492.956 322.63C493.046 323.16 493.466 323.57 493.996 323.66C495.436 323.91 498.286 324.9 500.086 328.95C500.326 329.48 499.776 330.04 499.256 329.77L499.246 329.78Z" fill="#B7B7B7"/>
<path d="M523.316 238C534.312 238 543.226 229.086 543.226 218.09C543.226 207.094 534.312 198.18 523.316 198.18C512.32 198.18 503.406 207.094 503.406 218.09C503.406 229.086 512.32 238 523.316 238Z" fill="black"/>
<path d="M540.036 353.05V268.55C540.036 262.48 538.666 258.39 535.946 256.28C533.216 254.17 528.746 253.11 522.546 253.11C519.706 253.11 516.846 253.33 513.996 253.77C511.136 254.2 508.966 254.54 507.476 254.79V342.31C499.486 340.81 491.466 340.91 483.386 342.7C474.096 344.75 465.286 348.51 456.496 352.04C448.546 355.23 440.436 358.42 431.966 359.85V332.93H442.776C450.066 332.93 456.726 331.95 462.676 330.01C468.626 328.12 473.666 325.36 477.816 321.85C478.886 320.93 479.906 319.97 480.846 318.96L480.906 319.01C481.726 319.62 482.446 320.19 483.146 320.74C485.076 322.32 486.956 324.03 488.726 325.82C488.376 328.18 488.006 333.92 492.296 336.56C492.586 336.75 492.926 336.83 493.266 336.83C493.866 336.83 494.436 336.54 494.786 336.06C495.136 335.56 495.236 334.95 495.036 334.37C494.436 332.49 494.506 331.07 494.916 330.8C495.426 330.49 495.956 330.34 496.556 330.34C497.386 330.34 498.166 330.65 498.666 330.9C498.916 331.04 499.216 331.11 499.506 331.11C500.126 331.11 500.696 330.79 501.046 330.27C501.396 329.74 501.456 329.07 501.196 328.48C499.186 323.95 495.926 322.77 494.176 322.47C493.256 316.93 491.626 311.71 489.316 306.94L488.836 305.92C490.236 301.88 490.946 297.47 490.946 292.72C490.946 280.19 486.416 270.3 477.346 262.97C475.846 261.75 474.216 260.65 472.486 259.63L466.036 126.55H472.656C473.686 126.55 474.516 125.72 474.516 124.69C474.516 123.66 473.686 122.83 472.656 122.83H472.136V115.85H463.706V106.04H465.496C466.526 106.04 467.356 105.21 467.356 104.18C467.356 95.96 461.816 89 454.266 86.84C455.496 85.59 456.256 83.87 456.256 81.98C456.256 78.14 453.136 75.02 449.296 75.02C445.456 75.02 442.356 78.14 442.356 81.98C442.356 83.87 443.116 85.58 444.346 86.84C436.796 89 431.256 95.96 431.256 104.18C431.256 105.21 432.086 106.04 433.116 106.04H434.906V115.85H426.476V122.83H425.946C424.916 122.83 424.086 123.66 424.086 124.69C424.086 125.72 424.916 126.55 425.946 126.55H432.576L426.466 252.6C425.146 252.72 423.796 252.86 422.416 253.03C416.666 253.7 411.656 254.77 407.436 256.26C404.966 257.13 402.986 258.27 401.576 259.69C400.146 261.16 399.436 263.17 399.436 265.76V354.44C391.236 350.76 383.176 346.47 374.316 344.68C373.746 344.57 373.156 344.46 372.586 344.37C374.736 338.99 375.816 333.07 375.816 326.58V268.55C375.816 262.48 374.446 258.39 371.716 256.28C368.986 254.17 364.526 253.11 358.326 253.11C355.616 253.11 352.936 253.32 350.236 253.71V205.42H353.276C354.366 205.42 355.366 204.86 355.936 203.93C356.506 203 356.546 201.86 356.036 200.89L344.696 179.08C356.916 174.04 365.406 166.35 369.916 156.2C370.436 155.06 370.926 153.82 371.346 152.54C373.046 147.51 373.916 141.85 373.916 135.71C373.916 134.36 373.876 133.24 373.816 132.19C373.796 131.64 373.746 131.1 373.696 130.55C374.056 130.48 374.396 130.34 374.666 130.08L384.856 119.89L409.536 132.32C409.806 132.44 410.096 132.52 410.376 132.52C410.826 132.52 411.266 132.35 411.616 132.04C412.186 131.53 412.386 130.72 412.116 130L401.566 101.63C401.566 101.63 401.556 101.62 401.546 101.61C401.546 101.59 401.526 101.56 401.506 101.54C401.436 101.35 401.306 101.19 401.186 101.04C401.166 101.02 401.166 100.99 401.136 100.97C401.126 100.96 401.116 100.96 401.096 100.94C400.936 100.79 400.756 100.68 400.566 100.59C400.516 100.57 400.476 100.55 400.426 100.54C400.356 100.52 400.286 100.48 400.216 100.47C400.106 100.45 400.006 100.45 399.896 100.45C399.856 100.45 399.826 100.44 399.796 100.44C399.586 100.44 399.386 100.49 399.186 100.55C399.136 100.57 399.096 100.59 399.046 100.61C398.846 100.7 398.656 100.82 398.496 100.97L383.156 116.31L373.236 126.23C372.986 124.52 372.686 122.79 372.306 121.08C370.506 112.91 367.266 105.03 362.696 97.69C361.776 96.17 360.736 94.62 359.626 93.08C349.276 78.72 334.736 68.27 318.316 63.23L327.436 58.56C328.606 59.95 330.196 60.91 331.996 61.27L355.016 65.83C356.906 66.1 358.656 66.25 360.306 66.25C380.276 66.24 383.716 46.31 386.526 30.05C386.876 27.99 387.226 25.96 387.596 24.05C388.016 21.95 387.586 19.83 386.406 18.05C385.216 16.27 383.416 15.07 381.316 14.66C381.316 14.66 358.586 10.15 358.316 10.1C333.606 6.36 329.836 28.26 326.806 45.86C326.446 47.92 326.096 49.95 325.726 51.87C325.506 53 325.526 54.13 325.786 55.22L317.066 59.68C317.696 57.62 318.056 55.47 318.056 53.28C318.056 41.9 309.286 32.55 298.146 31.61V17.51H308.756C309.636 17.51 310.466 17.14 311.066 16.48C311.646 15.83 311.936 14.96 311.856 14.1C311.066 6.06 304.366 0 296.276 0C288.186 0 281.496 6.06 280.716 14.1C280.626 14.97 280.916 15.84 281.496 16.48C282.096 17.14 282.926 17.51 283.806 17.51H294.416V31.61C283.286 32.55 274.506 41.91 274.506 53.28C274.506 56.48 275.226 59.64 276.566 62.52C259.196 67.25 243.766 78.02 232.906 93.08C231.876 94.51 230.846 96.06 229.846 97.68C225.276 105.02 222.046 112.9 220.216 121.07C219.946 122.36 219.706 123.67 219.496 124.97L210.826 116.3L195.496 100.96C195.336 100.81 195.136 100.69 194.936 100.6C194.896 100.58 194.846 100.56 194.816 100.54C194.616 100.48 194.416 100.43 194.206 100.43C194.166 100.43 194.136 100.44 194.096 100.44C193.996 100.44 193.886 100.44 193.786 100.46C193.696 100.47 193.636 100.51 193.566 100.53C193.516 100.54 193.476 100.55 193.426 100.58C193.226 100.67 193.056 100.78 192.906 100.93C192.896 100.94 192.866 100.94 192.856 100.96C192.846 100.98 192.836 101.01 192.816 101.03C192.676 101.18 192.566 101.34 192.476 101.53C192.466 101.55 192.456 101.58 192.436 101.6C192.436 101.61 192.426 101.61 192.426 101.62L181.866 129.99C181.596 130.71 181.796 131.52 182.366 132.03C182.726 132.34 183.156 132.51 183.606 132.51C183.896 132.51 184.186 132.44 184.446 132.31L209.136 119.88L218.886 129.63C218.816 130.47 218.746 131.32 218.696 132.15C218.636 133.22 218.596 134.37 218.596 135.69C218.596 141.79 219.476 147.44 221.226 152.46C221.636 153.67 222.136 154.89 222.696 156.12C227.276 166.13 235.776 173.75 247.946 178.8L236.466 200.87C235.956 201.84 235.996 202.98 236.566 203.91C237.136 204.84 238.136 205.4 239.226 205.4H243.736V270.53C242.436 269.08 241.036 267.7 239.566 266.41C233.916 261.52 227.156 257.88 219.286 255.53C211.406 253.17 202.646 251.99 192.976 251.99C191.456 251.99 189.856 252.03 188.216 252.09C183.156 205.52 164.346 151.63 153.866 124.34C155.816 123.89 157.546 122.87 158.756 121.28C162.046 117.04 160.506 110.32 155.336 106.32C153.236 104.69 150.816 103.69 148.366 103.49C152.486 98 158.766 92.97 166.286 89.34C176.786 84.27 188.046 82.78 196.436 85.37C197.756 85.78 199.166 85.27 199.936 84.09C200.286 83.57 200.446 82.97 200.446 82.39C200.446 81.68 200.196 80.97 199.716 80.4C189.606 68.56 172.136 65.31 157.246 72.51C149.946 76.03 144.256 81.55 140.666 88.04C141.496 83.48 143.066 78.75 145.326 74.13C150.446 63.66 158.376 55.52 166.566 52.38C167.856 51.88 168.656 50.6 168.536 49.21C168.416 47.83 167.426 46.73 166.076 46.45C150.806 43.37 135.076 51.62 127.806 66.47C125.096 72 123.836 77.87 123.896 83.59C120.236 81.24 116.096 79.49 111.616 78.51C94.4263 74.7 77.3163 83.01 70.9464 98.26C70.3864 99.6 70.7863 101.08 71.9263 101.95C73.0563 102.82 74.5763 102.82 75.7063 101.94C83.0063 96.25 95.5063 94.49 108.296 97.33C110.416 97.8 112.486 98.39 114.456 99.07C109.676 99.36 104.846 100.59 100.246 102.8C84.3764 110.45 76.0863 127.57 80.5363 143.49C80.9163 144.87 82.1264 145.79 83.5464 145.79H83.5964C85.0264 145.77 86.2063 144.82 86.5363 143.44C88.7563 134.45 97.4763 125.32 109.296 119.63C115.706 116.54 122.396 114.77 128.546 114.46C127.936 116.01 127.606 117.74 127.606 119.55C127.606 125.82 131.646 130.98 136.726 131.38C153.896 192.58 155.846 242.76 156.006 258.26C155.336 258.71 154.706 259.19 154.176 259.71C152.746 261.14 152.036 263.15 152.036 265.75V352.63C152.036 357.39 153.896 361.1 157.626 363.75C148.016 361.12 138.686 356.96 129.716 353.14C127.286 352.11 124.846 351.07 122.386 350.06C123.366 348.43 124.226 346.71 124.966 344.91C127.266 339.39 128.406 333.28 128.406 326.59V268.56C128.406 262.49 127.036 258.4 124.316 256.29C121.586 254.18 117.126 253.12 110.926 253.12C108.066 253.12 105.216 253.34 102.366 253.78C99.5063 254.21 97.3464 254.55 95.8564 254.8V326.04C95.8564 331.99 94.2063 336.65 90.9263 339.99C90.7063 340.21 90.4663 340.44 90.2263 340.65C85.4663 340.05 80.6364 339.92 75.7164 340.38C72.8864 340.65 70.0764 341.08 67.2664 341.62C66.6164 341.12 66.0163 340.59 65.4263 339.99C62.1463 336.65 60.5063 331.99 60.5063 326.04V268.57C60.5063 262.5 59.1364 258.41 56.4064 256.3C53.6764 254.19 49.2164 253.13 43.0164 253.13C40.1564 253.13 37.3163 253.35 34.4563 253.79C31.5963 254.22 29.4364 254.56 27.9464 254.81V326.61C27.9464 333.3 29.0864 339.42 31.3864 344.93C32.0864 346.59 32.8663 348.2 33.7563 349.71C26.3063 351.13 18.7764 351.77 11.0964 350.64C7.33636 350.08 3.69636 349.05 0.266357 347.5V351.79C11.6164 356.35 23.9164 355.53 35.9664 353.12C42.5964 351.8 49.1564 350 55.4464 348.36C61.5364 346.77 67.6664 345.34 73.8764 344.6C73.9164 344.6 73.9664 344.59 74.0164 344.59L84.4164 344.09C85.8364 344.13 87.2564 344.21 88.6864 344.36C97.9364 345.32 106.916 348.24 115.556 351.58C117.086 352.18 118.616 352.78 120.136 353.42C135.716 359.8 151.066 367.64 167.896 369.84C172.166 370.4 176.466 370.52 180.716 370.15C185.266 369.76 189.756 368.82 194.106 367.26C203.326 363.93 211.566 358.59 220.286 354.23C228.806 349.98 237.616 347.34 247.076 348.11C247.856 348.16 248.646 348.25 249.426 348.36C259.056 349.69 268.146 353.58 277.196 356.94C282.006 358.73 286.906 360.46 291.916 361.67C296.346 362.75 300.856 363.45 305.446 363.46C315.096 363.47 324.316 360.27 333.186 356.78C342.376 353.17 351.696 348.94 361.616 347.96C364.746 347.65 367.806 347.77 370.796 348.21C377.586 349.18 384.046 351.76 390.406 354.68C393.516 356.1 396.616 357.56 399.756 358.92C405.536 361.42 411.456 363.53 417.766 364.27C422.496 364.84 427.256 364.6 431.936 363.85C436.366 363.14 440.756 361.96 445.006 360.56C462.956 354.63 480.606 343.82 500.146 345.24C502.616 345.43 505.036 345.79 507.446 346.28C518.586 348.57 529.126 353.71 540.006 357.04C547.446 359.33 555.056 360.75 563.136 359.83C565.846 359.52 568.476 358.92 571.016 358.03V353.86C560.996 358.01 550.426 356.34 540.016 353.09L540.036 353.05ZM399.066 105.64L406.956 126.84L387.606 117.1L399.066 105.64ZM329.326 52.57C329.706 50.61 330.056 48.56 330.416 46.47C333.226 30.19 336.116 13.39 353.106 13.39C354.536 13.39 356.066 13.51 357.706 13.76V13.74C358.006 13.83 358.316 13.88 358.596 13.94L380.546 18.29C382.846 18.75 384.356 21 383.896 23.31C383.506 25.26 383.166 27.31 382.806 29.4C379.766 47.06 376.586 65.32 355.606 62.13L332.676 57.58C331.566 57.37 330.606 56.72 329.966 55.77C329.336 54.83 329.106 53.7 329.316 52.58L329.326 52.57ZM186.986 126.84L194.886 105.64L206.336 117.1L186.986 126.84ZM153.046 109.28C156.596 112.01 157.826 116.38 155.806 119.01C155.016 120.03 153.846 120.64 152.506 120.82C151.846 120.93 151.156 120.93 150.436 120.83C149.726 120.74 149.006 120.56 148.296 120.26C147.886 120.11 147.476 119.91 147.076 119.69V119.55C147.076 118.53 146.976 117.55 146.766 116.62C146.756 116.48 146.716 116.35 146.696 116.22C146.686 116.21 146.686 116.2 146.686 116.18C146.376 114.89 145.876 113.7 145.256 112.63C144.916 112.08 144.556 111.57 144.176 111.1C143.856 110.71 143.516 110.35 143.156 110.03C142.986 109.87 142.796 109.72 142.606 109.57C142.706 109.38 142.826 109.21 142.956 109.05C143.656 108.16 144.656 107.56 145.876 107.31C146.236 107.22 146.626 107.17 147.016 107.17C147.076 107.16 147.156 107.16 147.216 107.16H147.286C149.246 107.16 151.296 107.91 153.046 109.27V109.28ZM158.856 75.88C163.636 73.56 168.716 72.44 173.676 72.44C181.846 72.44 189.716 75.48 195.416 81.25C186.456 79.21 175.146 80.93 164.676 86C155.346 90.5 147.766 97.07 143.396 104.2C142.716 104.49 142.066 104.85 141.496 105.29C140.996 105.68 140.556 106.11 140.156 106.59C140.006 104.59 140.066 102.59 140.326 100.62C141.706 90.36 148.486 80.89 158.856 75.89V75.88ZM131.146 68.11C136.756 56.62 147.966 49.53 159.666 49.53C160.846 49.53 162.036 49.6 163.216 49.75C154.906 53.69 147.076 62.02 141.966 72.48C137.956 80.67 136.006 89.27 136.256 96.89C134.156 92.93 131.286 89.39 127.786 86.43C127.176 80.41 128.246 74.05 131.156 68.11H131.146ZM109.096 93.69C104.826 92.75 100.566 92.27 96.4864 92.27C88.3264 92.27 80.8563 94.12 75.3363 97.64C81.6363 85.37 96.1763 78.91 110.796 82.15C115.856 83.27 120.436 85.44 124.276 88.41C126.086 89.8 127.726 91.37 129.186 93.08C131.756 96.1 133.736 99.56 134.946 103.31L135.246 104.24C133.196 102.95 131.026 101.89 128.746 101.08C127.726 100.69 126.686 100.38 125.626 100.11C120.796 97.24 115.146 95.02 109.096 93.68V93.69ZM130.866 110.68C123.526 110.63 115.376 112.54 107.666 116.27C95.8564 121.97 86.8464 131 83.6064 140.28C80.9564 126.74 88.3663 112.67 101.866 106.15C106.646 103.84 111.726 102.72 116.686 102.72C119.236 102.72 121.756 103.02 124.186 103.6H124.196C127.886 104.48 131.386 106.03 134.476 108.21C133.546 108.56 132.676 109.07 131.876 109.73C131.526 110.03 131.176 110.34 130.856 110.69L130.866 110.68ZM139.396 127.18C139.036 127.35 138.666 127.49 138.276 127.57C137.966 127.64 137.656 127.68 137.336 127.68C136.716 127.68 136.116 127.56 135.556 127.32C133.106 126.3 131.316 123.21 131.316 119.56C131.316 118.16 131.576 116.85 132.036 115.7C132.206 115.27 132.406 114.86 132.656 114.47C133.076 113.72 133.616 113.09 134.226 112.61C135.066 111.91 136.056 111.49 137.096 111.44C137.166 111.43 137.256 111.43 137.336 111.43C137.656 111.43 137.966 111.47 138.266 111.53C138.526 111.58 138.776 111.65 139.016 111.77C139.316 111.88 139.616 112.03 139.886 112.22C140.866 112.83 141.696 113.79 142.296 114.98C142.306 115 142.336 115.04 142.346 115.07C142.776 115.95 143.096 116.95 143.236 118.03C143.306 118.53 143.346 119.05 143.346 119.58C143.346 120.26 143.286 120.92 143.156 121.54C142.686 124.16 141.256 126.29 139.396 127.2V127.18ZM141.856 136.03C143.596 134.78 147.516 131.43 147.606 126.4C147.606 126.4 149.556 127.44 151.166 127.7C153.046 132.63 155.156 138.33 157.376 144.63C154.856 144.79 152.246 145.31 149.736 146.23C148.076 146.84 146.496 147.6 145.026 148.47C144.036 144.38 142.976 140.23 141.846 136.02L141.856 136.03ZM145.336 149.73C146.826 148.81 148.456 148.04 150.176 147.41C152.686 146.49 155.286 145.98 157.816 145.87C160.156 152.54 162.626 159.83 165.086 167.57C161.966 167.52 158.716 168.07 155.546 169.22C153.616 169.92 151.836 170.8 150.156 171.85C148.766 164.74 147.166 157.35 145.336 149.73ZM150.416 173.17C152.116 172.04 153.966 171.11 155.966 170.39C159.136 169.23 162.386 168.71 165.476 168.83C168.136 177.29 170.776 186.24 173.236 195.44C169.646 194.63 165.606 194.68 161.626 195.64C159.146 196.24 156.786 197.17 154.666 198.35C153.526 190.46 152.116 182.04 150.406 173.18L150.416 173.17ZM154.876 199.68C156.986 198.44 159.386 197.46 161.916 196.85C165.966 195.87 170.036 195.87 173.606 196.79C175.966 205.72 178.156 214.88 179.986 224.01C176.176 222.95 171.816 222.93 167.426 223.97C163.936 224.81 160.776 226.26 158.136 228.17C157.416 219.85 156.376 210.26 154.866 199.69L154.876 199.68ZM176.956 252.83C171.006 253.39 165.356 254.53 160.026 256.27C159.906 256.31 159.806 256.36 159.686 256.41C159.586 250.63 159.256 241.47 158.256 229.63C160.876 227.59 164.166 226.04 167.706 225.18C172.056 224.14 176.516 224.21 180.236 225.35C182.036 234.43 183.486 243.47 184.446 252.25C182.066 252.39 179.566 252.57 176.946 252.82L176.956 252.83ZM215.826 336.44C210.496 341.89 203.556 344.63 194.996 344.63C193.256 344.63 191.406 344.53 189.416 344.34C187.426 344.15 185.756 343.94 184.396 343.69V278.96C186.246 278.71 188.086 278.53 189.876 278.4C191.676 278.28 193.436 278.21 195.176 278.21C203.856 278.21 210.806 281.03 216.006 286.67C221.226 292.31 223.816 300.72 223.816 311.87C223.816 323.02 221.156 330.97 215.816 336.43L215.826 336.44ZM284.466 13.77C285.356 7.98 290.316 3.71 296.246 3.71C302.176 3.71 307.126 7.98 308.026 13.77H284.476H284.466ZM296.236 35.22C306.186 35.22 314.286 43.32 314.286 53.27C314.286 56.18 313.586 59.03 312.266 61.59C311.746 61.48 311.206 61.39 310.686 61.29C310.066 61.17 309.446 61.04 308.836 60.93C307.946 60.78 307.046 60.66 306.156 60.53C305.656 60.47 305.176 60.39 304.686 60.33C303.606 60.21 302.516 60.12 301.416 60.04C301.116 60.03 300.806 59.99 300.496 59.97C299.076 59.9 297.656 59.85 296.236 59.85C294.816 59.85 293.396 59.9 291.976 59.97C291.666 59.99 291.366 60.03 291.066 60.04C289.976 60.11 288.866 60.2 287.786 60.33C287.306 60.39 286.816 60.47 286.336 60.53C285.446 60.65 284.536 60.78 283.636 60.93C283.016 61.04 282.406 61.17 281.786 61.29C281.266 61.39 280.726 61.48 280.206 61.59C278.876 59.03 278.186 56.17 278.186 53.27C278.186 43.32 286.286 35.22 296.236 35.22ZM226.206 154.85C226.266 154.84 226.346 154.81 226.406 154.8C226.306 154.61 226.216 154.43 226.136 154.23C225.706 153.3 225.306 152.32 224.956 151.31C224.896 151.32 224.846 151.35 224.786 151.36C224.776 151.32 224.766 151.29 224.746 151.24C223.136 146.61 222.316 141.38 222.316 135.69V135.42C222.316 135.21 222.316 135 222.326 134.8C222.326 134.5 222.326 134.23 222.336 133.96C222.336 133.69 222.346 133.41 222.356 133.15C222.356 132.73 222.376 132.32 222.406 131.9C222.576 128.38 223.066 124.88 223.836 121.44C225.566 113.69 228.696 106.21 232.976 99.37C233.896 97.89 234.876 96.44 235.896 95.02C243.126 85.07 252.856 76.74 264.176 71.16C264.936 70.79 265.696 70.43 266.466 70.08C267.286 69.72 268.116 69.36 268.946 69.01C269.916 68.62 270.886 68.25 271.856 67.89C271.956 67.85 272.056 67.82 272.156 67.78C272.606 67.63 273.036 67.48 273.486 67.33C273.996 67.16 274.506 66.98 275.016 66.83C276.556 66.35 278.106 65.91 279.686 65.54H279.726C283.916 64.55 288.186 63.93 292.466 63.7C293.716 63.64 294.986 63.6 296.246 63.6C297.506 63.6 298.766 63.64 300.026 63.7C304.316 63.92 308.586 64.54 312.766 65.54H312.806C313.366 65.68 313.916 65.81 314.456 65.96C315.016 66.1 315.576 66.26 316.116 66.42C318.126 67 320.106 67.67 322.056 68.42C323.046 68.81 324.046 69.22 325.036 69.64C337.766 75.16 348.676 84.11 356.576 95C357.606 96.42 358.586 97.87 359.496 99.35C363.796 106.21 366.926 113.67 368.646 121.43C369.416 124.87 369.896 128.37 370.076 131.89C370.096 132.31 370.126 132.72 370.126 133.14C370.146 133.4 370.166 133.66 370.146 133.93C370.156 134.2 370.156 134.48 370.156 134.77C370.166 134.97 370.166 135.18 370.166 135.4V135.67C370.166 141.4 369.376 146.66 367.786 151.32C367.786 151.34 367.776 151.37 367.766 151.41C367.716 151.4 367.656 151.39 367.606 151.36C367.266 152.37 366.886 153.35 366.446 154.28C366.356 154.47 366.276 154.67 366.186 154.85C366.246 154.86 366.326 154.89 366.386 154.9C361.816 164.96 353.286 172.12 340.276 176.76H253.026C239.876 172.15 230.856 164.77 226.206 154.84V154.85ZM240.236 201.68L251.256 180.5H280.606L343.696 185.23L352.256 201.68H240.236ZM346.496 254.26C345.196 254.47 344.086 254.65 343.246 254.78V326.02C343.246 331.97 341.606 336.63 338.316 339.97C335.036 343.32 330.786 345 325.576 345C320.366 345 316.126 343.32 312.846 339.97C309.556 336.63 307.916 331.97 307.916 326.02V268.55C307.916 262.48 306.546 258.39 303.816 256.28C301.096 254.17 296.626 253.11 290.426 253.11C287.566 253.11 284.726 253.33 281.866 253.77C279.006 254.2 276.846 254.54 275.356 254.79V326.59C275.356 333.28 276.496 339.4 278.796 344.91C280.456 348.92 282.676 352.51 285.426 355.67C273.516 351.72 261.766 345.99 249.446 344.4C250.726 342.2 251.856 339.87 252.846 337.38C255.826 329.94 257.316 321.26 257.316 311.33C257.316 301.4 255.766 292.36 252.656 284.92C251.206 281.43 249.466 278.24 247.456 275.31V205.94H288.376L346.506 210.18V254.28L346.496 254.26ZM463.696 117.08H470.886V122.82H463.696V117.08ZM449.286 78.73C451.076 78.73 452.516 80.17 452.516 81.96C452.516 83.75 451.076 85.18 449.286 85.18C447.496 85.18 446.066 83.74 446.066 81.96C446.066 80.18 447.506 78.73 449.286 78.73ZM449.286 89.84C456.566 89.84 462.576 95.28 463.496 102.3H435.076C435.996 95.28 442.016 89.84 449.286 89.84ZM452.716 115.84C452.446 114.19 451.016 112.92 449.286 112.92C448.426 112.92 447.636 113.23 447.036 113.76C446.426 114.28 446.006 115.01 445.866 115.83H438.616V106.02H459.966V115.83H452.716V115.84ZM459.966 117.08V122.82H452.766V117.08H459.966ZM445.806 117.08V122.82H438.616V117.08H445.806ZM436.226 127.36H438.596L462.596 132.7L464.016 161.89H452.766V155.43C452.766 153.52 451.216 151.96 449.286 151.96C448.326 151.96 447.456 152.35 446.826 152.98C446.196 153.6 445.806 154.47 445.806 155.43V161.89H434.566L436.226 127.36ZM427.696 122.82V117.08H434.886V122.82H427.696ZM433.566 182.42H465.006L466.766 218.89H452.756V212.42C452.756 210.51 451.206 208.95 449.276 208.95C448.316 208.95 447.446 209.34 446.816 209.97C446.186 210.59 445.796 211.46 445.796 212.42V218.89H431.796L433.556 182.42H433.566ZM430.816 239.4H467.766L468.646 257.62C460.536 253.88 450.346 252.01 438.116 252.01C435.616 252.01 432.966 252.11 430.176 252.3L430.806 239.41L430.816 239.4ZM425.236 311.47C421.996 312.45 419.606 313.2 418.346 313.16C417.916 313.15 417.516 312.9 417.256 312.54C416.966 312.12 416.906 311.58 417.116 311.12C417.116 311.12 420.536 305.98 420.296 303.44C420.176 302.12 420.596 296.37 426.416 291.33C431.406 287.02 440.386 283.23 456.426 283.24C456.426 283.24 462.846 276.04 471.336 274.53C472.466 274.33 473.636 274.23 474.826 274.27C476.806 274.33 473.276 277.36 472.206 279.04C471.986 279.39 471.786 279.72 471.606 280.06C469.436 284.07 470.126 287.08 470.126 287.08C470.126 287.08 470.826 287.44 471.986 288.22C475.276 290.42 482.286 295.93 487.476 305.87C487.736 306.35 487.986 306.85 488.226 307.36C488.236 307.38 488.246 307.4 488.266 307.42C488.286 307.36 488.316 307.3 488.326 307.23C490.376 311.49 491.956 316.78 492.906 322.63C492.996 323.16 493.416 323.57 493.946 323.66C495.386 323.91 498.236 324.9 500.036 328.95C500.236 329.38 499.896 329.84 499.486 329.84C499.396 329.84 499.296 329.82 499.196 329.77C498.446 329.4 497.516 329.07 496.526 329.07C495.766 329.07 494.996 329.26 494.236 329.72C492.866 330.55 493.306 333.11 493.826 334.74C493.976 335.17 493.626 335.56 493.246 335.56C493.136 335.56 493.036 335.54 492.926 335.47C489.196 333.16 489.676 327.79 489.946 325.99C490.006 325.59 489.876 325.19 489.596 324.91C487.706 323 485.806 321.28 483.906 319.73C483.156 319.13 482.416 318.56 481.686 318C481.696 317.99 481.706 317.96 481.726 317.95C481.716 317.94 481.706 317.94 481.686 317.93C481.346 317.68 481.016 317.45 480.676 317.21C470.886 310.29 461.046 307.72 452.136 307.31C453.146 308.69 454.146 309.96 454.946 310.92C455.646 311.74 455.006 312.98 453.936 312.96C448.806 312.81 445.006 310.26 442.406 307.64C435.526 308.41 429.596 310.12 425.226 311.44L425.236 311.47Z" fill="black"/>
<path d="M512.496 394.86C502.846 392.21 493.146 391.94 483.406 394.06C474.106 396.11 465.316 399.9 456.486 403.44C447.926 406.88 439.146 410.31 429.966 411.56C419.866 412.9 410.526 410.69 401.306 406.68C392.436 402.85 383.846 398.01 374.306 396.07C364.966 394.18 355.666 395.76 346.756 398.75C337.616 401.82 328.906 406.08 319.636 408.72C309.826 411.48 300.246 411.28 290.436 408.56C272.296 403.52 254.726 392.47 235.206 396.06C216.016 399.58 201.436 415.25 181.806 417.5C163.596 419.55 146.016 411.48 129.696 404.5C112.556 397.21 94.7264 389.95 75.6964 391.73C54.0564 393.78 33.2364 405.24 11.0964 401.98C7.33637 401.43 3.71637 400.4 0.276367 398.87V403.11C17.8764 410.19 37.7364 404.36 55.4364 399.69C66.3564 396.86 77.3864 394.57 88.6964 395.71C97.9664 396.65 106.906 399.57 115.536 402.91C132.716 409.57 149.436 418.76 167.876 421.21C170.506 421.56 173.156 421.72 175.806 421.72C182.026 421.72 188.176 420.73 194.086 418.6C203.306 415.25 211.546 409.93 220.296 405.56C229.476 400.99 239.056 398.27 249.426 399.68C259.036 401.02 268.146 404.92 277.216 408.28C286.286 411.67 295.666 414.78 305.436 414.83C315.086 414.83 324.316 411.59 333.186 408.12C342.366 404.49 351.706 400.28 361.646 399.29C371.896 398.31 381.276 401.81 390.416 406.03C399.246 410.05 408.026 414.46 417.766 415.61C427.036 416.72 436.286 414.78 445.006 411.91C462.976 405.96 480.626 395.15 500.146 396.57C521.946 398.19 540.706 413.72 563.126 411.15C565.846 410.86 568.476 410.28 571.026 409.4V405.19C551.886 413.13 530.766 399.86 512.486 394.84L512.496 394.86Z" fill="black"/>
<path d="M512.496 370.12C502.846 367.49 493.146 367.2 483.406 369.34C474.106 371.39 465.316 375.17 456.486 378.72C447.926 382.15 439.146 385.58 429.966 386.84C419.866 388.18 410.526 385.97 401.306 381.95C392.436 378.12 383.846 373.28 374.306 371.35C364.966 369.45 355.666 371.03 346.756 374.02C337.616 377.1 328.906 381.36 319.636 383.99C309.826 386.75 300.246 386.55 290.436 383.83C272.296 378.79 254.726 367.76 235.206 371.35C216.016 374.85 201.436 390.54 181.806 392.79C163.596 394.84 146.016 386.75 129.696 379.78C119.286 375.36 108.626 370.94 97.6164 368.56H97.6064C90.4664 367.01 83.1864 366.31 75.7064 367.01C71.0464 367.46 66.4164 368.33 61.8064 369.41H61.7964C45.0264 373.32 28.4664 379.82 11.1064 377.26C7.34638 376.7 3.72638 375.68 0.286377 374.14V378.38C17.8864 385.46 37.7464 379.65 55.4464 374.98C61.8064 373.32 68.2064 371.85 74.6764 371.14H74.7164C75.8464 371.2 77.0064 371.23 78.1864 371.23C81.0164 371.23 83.7264 371.09 86.3364 370.81H86.3464C87.1364 370.85 87.9264 370.91 88.7164 371C97.9864 371.94 106.926 374.86 115.556 378.22C132.736 384.88 149.456 394.06 167.896 396.5C170.526 396.86 173.176 397.01 175.826 397.01C182.046 397.01 188.196 396.03 194.106 393.9C203.326 390.55 211.566 385.23 220.316 380.85C229.496 376.28 239.076 373.56 249.446 374.99C259.056 376.32 268.166 380.23 277.236 383.57C286.306 386.96 295.686 390.08 305.456 390.12C315.106 390.12 324.336 386.89 333.206 383.42C342.386 379.79 351.726 375.57 361.666 374.59C371.916 373.61 381.296 377.11 390.436 381.32C399.266 385.34 408.046 389.75 417.786 390.91C427.056 392 436.306 390.08 445.026 387.2C462.996 381.25 480.646 370.46 500.166 371.87C521.966 373.48 540.726 389.01 563.146 386.45C565.866 386.15 568.496 385.58 571.046 384.7V380.48C551.906 388.43 530.786 375.15 512.506 370.13L512.496 370.12Z" fill="white"/>
<path d="M370.756 28.4501C370.036 27.3801 368.946 26.65 367.676 26.41L356.336 24.16H356.266L356.176 24.14C355.526 24.04 354.926 23.98 354.316 23.94C354.046 23.93 353.786 23.9301 353.526 23.9301C342.906 23.9301 341.046 34.7101 339.686 42.5701L339.646 42.7401C339.486 43.7001 339.326 44.6401 339.146 45.5301L339.096 45.8V45.9001C338.956 47.0401 339.236 48.1701 339.876 49.1301C340.586 50.2001 341.686 50.9201 342.946 51.1701L354.296 53.4201H354.366L354.426 53.44C355.386 53.59 356.306 53.66 357.156 53.66C367.726 53.66 369.586 42.8701 370.946 34.9901L370.986 34.7901C371.146 33.8501 371.306 32.9101 371.466 32.0201C371.716 30.7701 371.466 29.4901 370.746 28.4301L370.756 28.4501ZM367.826 31.3501C367.636 32.3201 367.466 33.3401 367.276 34.3801C365.686 43.6501 364.056 49.9601 357.166 49.9601C356.496 49.9601 355.786 49.9001 355.016 49.7701L343.636 47.5201C343.366 47.4701 343.116 47.3101 342.966 47.0701C342.806 46.8201 342.746 46.54 342.806 46.25C342.996 45.27 343.166 44.2501 343.336 43.2101C344.936 33.9301 346.586 27.66 353.506 27.66C353.706 27.66 353.906 27.6601 354.116 27.6701C354.586 27.6901 355.086 27.7401 355.606 27.8201L366.976 30.08C367.266 30.13 367.496 30.2901 367.656 30.5301C367.816 30.7701 367.876 31.0501 367.816 31.3501H367.826Z" fill="black"/>
<path d="M358.086 45.6701C361.216 43.5001 358.936 41.33 356.766 38.2C354.596 35.07 353.366 32.17 350.236 34.34C347.106 36.51 346.326 40.8 348.496 43.93C350.666 47.06 354.956 47.8401 358.086 45.6701Z" fill="black"/>
<path d="M434.256 294.98C433.936 294.96 433.606 295.19 433.576 295.53C433.456 296.5 433.116 297.16 432.546 297.48C431.436 298.11 429.756 297.39 429.736 297.38C429.416 297.24 429.056 297.39 428.916 297.7C428.776 298.01 428.926 298.38 429.236 298.52C429.296 298.54 430.276 298.97 431.426 298.97C431.996 298.97 432.606 298.87 433.166 298.56C434.086 298.03 434.636 297.06 434.806 295.68C434.846 295.35 434.606 295.03 434.256 294.98Z" fill="black"/>
<path d="M0.476318 464.98L8.70631 445.03H11.5863L19.8663 464.98H15.8263L13.7163 459.83H6.69632L4.50632 464.98H0.476318ZM8.02632 456.3H12.2663L10.1363 450.25L8.02632 456.3Z" fill="black"/>
<path d="M36.3862 464.98V445.03H40.8962C44.0162 445.03 46.3562 445.5 47.9162 446.45C49.3062 447.3 50.3762 448.5 51.1262 450.04C51.8462 451.5 52.2062 453.16 52.2062 455.04C52.2062 457.61 51.5462 459.76 50.2262 461.51C49.2662 462.77 48.0862 463.66 46.6762 464.19C45.2662 464.72 43.3662 464.98 40.9762 464.98H36.3862ZM40.0462 461.45H40.8362C42.9762 461.45 44.5862 461.15 45.6662 460.55C46.6262 460.01 47.3462 459.2 47.8462 458.11C48.2862 457.15 48.5162 456.13 48.5162 455.04C48.5162 453.43 48.0962 452.05 47.2662 450.9C46.6462 450.04 45.8562 449.43 44.8862 449.09C43.9162 448.74 42.5462 448.57 40.7662 448.57H40.0462V461.45Z" fill="black"/>
<path d="M58.5964 464.98V445.03H62.2664V464.98H58.5964Z" fill="black"/>
<path d="M75.4864 464.98L67.8064 445.03H71.6364L76.9564 460.2L82.2864 445.03H86.1164L78.4764 464.98H75.4764H75.4864Z" fill="black"/>
<path d="M91.5764 464.98V445.03H95.2464V464.98H91.5764Z" fill="black"/>
<path d="M102.566 464.98V445.03H106.736L114.896 459.55V445.03H118.566V464.98H114.476L106.236 450.49V464.98H102.566Z" fill="black"/>
<path d="M125.856 464.98V445.03H136.456V448.56H129.516V453.25H136.166V456.78H129.516V461.43H136.456V464.96H125.856V464.98Z" fill="black"/>
<path d="M152.636 464.98L160.866 445.03H163.746L172.026 464.98H167.986L165.876 459.83H158.856L156.666 464.98H152.636ZM160.186 456.3H164.426L162.296 450.25L160.186 456.3Z" fill="black"/>
<path d="M177.456 464.98V445.03H181.536C182.996 445.03 184.096 445.1 184.846 445.24C185.596 445.38 186.266 445.63 186.856 446C187.566 446.46 188.116 447.06 188.516 447.82C188.906 448.58 189.106 449.42 189.106 450.35C189.106 451.28 188.936 452.05 188.606 452.62C188.276 453.19 187.706 453.68 186.916 454.1C187.546 454.36 188.036 454.61 188.386 454.85C188.726 455.09 189.036 455.39 189.316 455.76C189.956 456.62 190.276 457.71 190.276 459.03C190.276 460.24 189.976 461.33 189.366 462.29C188.206 464.09 185.996 464.99 182.726 464.99H177.456V464.98ZM181.126 452.72H182.316C183.576 452.72 184.416 452.53 184.846 452.15C185.256 451.79 185.456 451.29 185.456 450.66C185.456 449.32 184.516 448.64 182.626 448.64H181.126V452.71V452.72ZM181.126 461.45H182.956C184.236 461.45 185.146 461.26 185.696 460.88C186.296 460.48 186.596 459.83 186.596 458.94C186.596 458.05 186.296 457.4 185.686 456.97C185.076 456.54 184.136 456.33 182.856 456.33H181.136V461.45H181.126Z" fill="black"/>
<path d="M205.896 444.68C207.776 444.68 209.526 445.18 211.166 446.18C212.816 447.2 214.076 448.57 214.946 450.29C215.676 451.76 216.036 453.33 216.036 455.01C216.036 456.96 215.546 458.77 214.576 460.43C213.576 462.13 212.206 463.41 210.476 464.28C209.066 464.98 207.526 465.33 205.856 465.33C203.846 465.33 202.016 464.83 200.356 463.81C198.716 462.81 197.456 461.43 196.576 459.68C195.836 458.2 195.466 456.64 195.466 455.01C195.466 453.07 195.966 451.26 196.966 449.59C197.946 447.93 199.316 446.65 201.076 445.77C202.506 445.03 204.116 444.66 205.886 444.66L205.896 444.68ZM205.846 448.24C203.936 448.24 202.346 448.89 201.096 450.18C200.486 450.8 200.016 451.54 199.676 452.39C199.336 453.24 199.166 454.12 199.166 455.01C199.166 456.26 199.496 457.44 200.146 458.56C200.786 459.67 201.676 460.5 202.806 461.06C203.746 461.53 204.756 461.77 205.846 461.77C207.736 461.77 209.286 461.13 210.506 459.86C211.086 459.25 211.546 458.52 211.866 457.67C212.186 456.82 212.356 455.94 212.356 455.03C212.356 453.74 212.046 452.54 211.416 451.43C210.796 450.35 209.916 449.52 208.786 448.94C207.866 448.47 206.886 448.23 205.856 448.23L205.846 448.24Z" fill="black"/>
<path d="M222.446 464.98V445.03H226.956C230.076 445.03 232.416 445.5 233.976 446.45C235.366 447.3 236.436 448.5 237.186 450.04C237.906 451.5 238.266 453.16 238.266 455.04C238.266 457.61 237.606 459.76 236.286 461.51C235.326 462.77 234.146 463.66 232.736 464.19C231.326 464.72 229.426 464.98 227.036 464.98H222.446ZM226.116 461.45H226.906C229.046 461.45 230.656 461.15 231.736 460.55C232.696 460.01 233.416 459.2 233.916 458.11C234.356 457.15 234.586 456.13 234.586 455.04C234.586 453.43 234.166 452.05 233.336 450.9C232.716 450.04 231.926 449.43 230.956 449.09C229.986 448.74 228.616 448.57 226.836 448.57H226.116V461.45Z" fill="black"/>
<path d="M244.816 464.98V445.03H255.416V448.56H248.476V453.25H255.126V456.78H248.476V461.43H255.416V464.96H244.816V464.98Z" fill="black"/>
<path d="M273.226 464.98V445.03H277.306C278.766 445.03 279.866 445.1 280.616 445.24C281.366 445.38 282.036 445.63 282.626 446C283.336 446.46 283.886 447.06 284.286 447.82C284.676 448.58 284.876 449.42 284.876 450.35C284.876 451.28 284.706 452.05 284.376 452.62C284.046 453.19 283.476 453.68 282.686 454.1C283.316 454.36 283.806 454.61 284.156 454.85C284.496 455.09 284.806 455.39 285.086 455.76C285.726 456.62 286.046 457.71 286.046 459.03C286.046 460.24 285.746 461.33 285.136 462.29C283.976 464.09 281.766 464.99 278.496 464.99H273.226V464.98ZM276.896 452.72H278.086C279.346 452.72 280.186 452.53 280.616 452.15C281.026 451.79 281.226 451.29 281.226 450.66C281.226 449.32 280.286 448.64 278.396 448.64H276.896V452.71V452.72ZM276.896 461.45H278.726C280.006 461.45 280.916 461.26 281.466 460.88C282.066 460.48 282.366 459.83 282.366 458.94C282.366 458.05 282.066 457.4 281.456 456.97C280.846 456.54 279.906 456.33 278.626 456.33H276.906V461.45H276.896Z" fill="black"/>
<path d="M292.246 464.98V445.03H295.916V461.44H301.936V464.97H292.246V464.98Z" fill="black"/>
<path d="M307.526 464.98V445.03H318.126V448.56H311.186V453.25H317.836V456.78H311.186V461.43H318.126V464.96H307.526V464.98Z" fill="black"/>
<path d="M323.586 459.29H327.406C327.576 460.95 328.466 461.78 330.076 461.78C330.816 461.78 331.426 461.58 331.906 461.19C332.466 460.72 332.736 460.11 332.736 459.36C332.736 458.51 332.436 457.83 331.826 457.33C331.526 457.09 331.206 456.9 330.876 456.75C330.546 456.6 329.726 456.28 328.406 455.79C327.066 455.29 326.046 454.57 325.356 453.64C324.656 452.69 324.296 451.6 324.296 450.36C324.296 448.87 324.816 447.57 325.846 446.47C326.956 445.28 328.356 444.69 330.036 444.69C330.956 444.69 331.826 444.88 332.636 445.25C333.446 445.62 334.126 446.15 334.666 446.83C335.416 447.77 335.826 448.95 335.896 450.36H332.116C332.066 449.69 331.856 449.17 331.486 448.8C331.116 448.43 330.626 448.25 330.016 448.25C329.346 448.25 328.826 448.47 328.446 448.92C328.146 449.29 327.986 449.74 327.986 450.26C327.986 451.01 328.356 451.61 329.086 452.08C329.276 452.19 330.006 452.49 331.266 452.98C332.236 453.35 332.946 453.65 333.376 453.88C333.806 454.11 334.226 454.41 334.626 454.78C335.796 455.86 336.376 457.25 336.376 458.95C336.376 460.65 335.786 462.2 334.606 463.43C333.386 464.7 331.876 465.34 330.076 465.34C329.026 465.34 328.036 465.13 327.126 464.7C326.206 464.27 325.456 463.68 324.876 462.93C324.126 461.95 323.696 460.73 323.586 459.29Z" fill="black"/>
<path d="M341.376 459.29H345.196C345.366 460.95 346.256 461.78 347.866 461.78C348.606 461.78 349.216 461.58 349.696 461.19C350.256 460.72 350.526 460.11 350.526 459.36C350.526 458.51 350.226 457.83 349.616 457.33C349.316 457.09 348.996 456.9 348.666 456.75C348.336 456.6 347.516 456.28 346.196 455.79C344.856 455.29 343.836 454.57 343.146 453.64C342.446 452.69 342.086 451.6 342.086 450.36C342.086 448.87 342.606 447.57 343.636 446.47C344.746 445.28 346.146 444.69 347.826 444.69C348.746 444.69 349.616 444.88 350.426 445.25C351.236 445.62 351.916 446.15 352.456 446.83C353.206 447.77 353.616 448.95 353.686 450.36H349.906C349.856 449.69 349.646 449.17 349.276 448.8C348.906 448.43 348.416 448.25 347.806 448.25C347.136 448.25 346.616 448.47 346.236 448.92C345.936 449.29 345.776 449.74 345.776 450.26C345.776 451.01 346.146 451.61 346.876 452.08C347.066 452.19 347.796 452.49 349.056 452.98C350.026 453.35 350.736 453.65 351.166 453.88C351.596 454.11 352.016 454.41 352.416 454.78C353.586 455.86 354.166 457.25 354.166 458.95C354.166 460.65 353.576 462.2 352.396 463.43C351.176 464.7 349.666 465.34 347.866 465.34C346.816 465.34 345.826 465.13 344.916 464.7C343.996 464.27 343.246 463.68 342.666 462.93C341.916 461.95 341.486 460.73 341.376 459.29Z" fill="black"/>
<path d="M360.226 464.98V445.03H370.826V448.56H363.886V453.25H370.536V456.78H363.886V461.43H370.826V464.96H360.226V464.98Z" fill="black"/>
<path d="M377.636 464.98V445.03H382.146C385.266 445.03 387.606 445.5 389.166 446.45C390.556 447.3 391.626 448.5 392.376 450.04C393.096 451.5 393.456 453.16 393.456 455.04C393.456 457.61 392.796 459.76 391.476 461.51C390.516 462.77 389.336 463.66 387.926 464.19C386.516 464.72 384.616 464.98 382.226 464.98H377.636ZM381.306 461.45H382.096C384.236 461.45 385.846 461.15 386.926 460.55C387.886 460.01 388.606 459.2 389.106 458.11C389.546 457.15 389.776 456.13 389.776 455.04C389.776 453.43 389.356 452.05 388.526 450.9C387.906 450.04 387.116 449.43 386.146 449.09C385.176 448.74 383.806 448.57 382.026 448.57H381.306V461.45Z" fill="black"/>
<path d="M410.846 464.98V445.03H414.926C416.386 445.03 417.486 445.1 418.236 445.24C418.986 445.38 419.656 445.63 420.246 446C420.956 446.46 421.506 447.06 421.906 447.82C422.296 448.58 422.496 449.42 422.496 450.35C422.496 451.28 422.326 452.05 421.996 452.62C421.666 453.19 421.096 453.68 420.306 454.1C420.936 454.36 421.426 454.61 421.776 454.85C422.116 455.09 422.426 455.39 422.706 455.76C423.346 456.62 423.666 457.71 423.666 459.03C423.666 460.24 423.366 461.33 422.756 462.29C421.596 464.09 419.386 464.99 416.116 464.99H410.846V464.98ZM414.516 452.72H415.706C416.966 452.72 417.806 452.53 418.236 452.15C418.646 451.79 418.846 451.29 418.846 450.66C418.846 449.32 417.906 448.64 416.016 448.64H414.516V452.71V452.72ZM414.516 461.45H416.346C417.626 461.45 418.536 461.26 419.086 460.88C419.686 460.48 419.986 459.83 419.986 458.94C419.986 458.05 419.686 457.4 419.076 456.97C418.466 456.54 417.526 456.33 416.246 456.33H414.526V461.45H414.516Z" fill="black"/>
<path d="M433.556 464.98V457.62L427.076 445.03H431.026L435.396 454.21L439.756 445.03H443.716L437.226 457.62V464.98H433.556Z" fill="black"/>
<path d="M459.896 464.98V445.03H464.066L472.226 459.55V445.03H475.896V464.98H471.806L463.566 450.49V464.98H459.896Z" fill="black"/>
<path d="M481.396 464.98L489.626 445.03H492.506L500.786 464.98H496.746L494.636 459.83H487.616L485.426 464.98H481.396ZM488.946 456.3H493.186L491.056 450.25L488.946 456.3Z" fill="black"/>
<path d="M507.236 464.98V448.57H503.566V445.04H514.546V448.57H510.896V464.98H507.236Z" fill="black"/>
<path d="M519.936 445.04H523.606V457.67C523.606 458.42 523.636 458.98 523.706 459.37C523.776 459.76 523.906 460.11 524.096 460.44C524.336 460.85 524.686 461.18 525.136 461.42C525.586 461.66 526.076 461.78 526.606 461.78C527.136 461.78 527.626 461.66 528.076 461.42C528.526 461.18 528.876 460.85 529.126 460.44C529.306 460.12 529.436 459.76 529.506 459.37C529.576 458.98 529.606 458.42 529.606 457.67V445.04H533.266V457.67C533.266 459.87 532.826 461.57 531.936 462.77C531.326 463.59 530.536 464.23 529.576 464.68C528.636 465.12 527.646 465.34 526.606 465.34C525.176 465.34 523.876 464.95 522.706 464.15C521.746 463.49 521.036 462.64 520.596 461.61C520.156 460.58 519.936 459.26 519.936 457.66V445.03V445.04Z" fill="black"/>
<path d="M540.566 464.98V445.03H546.256C547.816 445.03 549.006 445.17 549.806 445.45C551.136 445.92 552.146 446.75 552.846 447.92C553.446 448.92 553.746 450.09 553.746 451.43C553.746 453.42 553.066 454.99 551.716 456.14C551.286 456.5 550.856 456.79 550.406 457C549.956 457.21 549.356 457.41 548.586 457.61L553.936 464.99H549.426L544.246 457.36V464.99H540.576L540.566 464.98ZM544.226 454.56H546.026C547.626 454.56 548.716 454.27 549.286 453.68C549.786 453.15 550.046 452.44 550.046 451.53C550.046 450.56 549.726 449.8 549.086 449.26C548.536 448.8 547.466 448.57 545.876 448.57H544.236V454.56H544.226Z" fill="black"/>
<path d="M559.936 464.98V445.03H570.536V448.56H563.596V453.25H570.246V456.78H563.596V461.43H570.536V464.96H559.936V464.98Z" fill="black"/>
</svg>
